<svg width="256" height="256" viewBox="0 0 120 120" xmlns="http://www.w3.org/2000/svg" role="img" aria-labelledby="logoTitle logoDesc">
  <title id="logoTitle">Supertester Logo</title>
  <desc id="logoDesc">A badass hexagonal logo for Supertester, an Elixir OTP testing framework. The logo is dark themed with vibrant green accents. Inside the hexagon is a powerful robotic golem character. Its single glowing eye represents supervision, one arm is a clamp for stress testing, and the other is a probe for assertions. A checkmark is integrated into its chest armor.</desc>

  <defs>
    <linearGradient id="bgGradient" x1="0%" y1="0%" x2="100%" y2="100%">
      <stop offset="0%" style="stop-color:#1D1B26; stop-opacity:1" />
      <stop offset="100%" style="stop-color:#111015; stop-opacity:1" />
    </linearGradient>
    <filter id="neonGlow" x="-50%" y="-50%" width="200%" height="200%">
      <feGaussianBlur in="SourceGraphic" stdDeviation="2" result="blur" />
      <feMerge>
        <feMergeNode in="blur" />
        <feMergeNode in="SourceGraphic" />
      </feMerge>
    </filter>
  </defs>

  <path d="M60 5 L110 32.5 V 87.5 L60 115 L10 87.5 V 32.5 Z" fill="url(#bgGradient)" stroke="#4A4458" stroke-width="2.5"/>

  <g transform="translate(0, 5)">
    <path d="M60,25 C 40,25 35,40 35,50 L35,75 C35,85 40,95 60,95 C80,95 85,85 85,75 L85,50 C85,40 80,25 60,25 Z" fill="#6F687D" stroke="#4A4458" stroke-width="2"/>
    
    <path d="M48,65 L57,74 L72,59" stroke="#00FF87" stroke-width="4" fill="none" stroke-linecap="round" stroke-linejoin="round"/>
    
    <g stroke-width="2.5" stroke="#6F687D" fill="none" stroke-linecap="round">
        <path d="M35,60 C25,60 20,70 25,80"/>
        <path d="M25,80 L18,78" stroke-width="3.5"/>
        <path d="M25,80 L22,87" stroke-width="3.5"/>
    </g>
    <g stroke-width="2.5" stroke="#6F687D" fill="none" stroke-linecap="round">
        <path d="M85,60 C95,60 100,70 95,80"/>
        <path d="M95,80 L105,85" stroke-width="2"/>
    </g>

    <g filter="url(#neonGlow)">
      <circle cx="60" cy="48" r="7" fill="#00FF87"/>
      <circle cx="60" cy="48" r="3" fill="#EFFFF7"/>
    </g>
  </g>
</svg>
